PathFileType	4	(X/Y/Z)	Run_300 02
DataRate	CameraRate	NumFrames	NumMarkers	Units	OrigDataRate	OrigDataStartFrame	OrigNumFrames
100	100	5	42	mm	100	59	128
Frame#	Time	LASI			RASI			LPSI			RTH1			RTH2			RTH3			LTH1			LTH2			LTH3			RTB1			RTB2			RTB3			LTB1			LTB2			LTB3			RCAL			RTOE			RMT5			LCAL			LTOE			LMT5			LACR			RACR			CLAV			C7			RUA1			RUA2			RUA3			RLEL			RMEL			LUA1			LUA2			LUA3			LLEL			RFAsuperior			RFAradius			RFAulna			LFAsuperior			LFAradius			LFAulna			LMEL			RPSI			
		X1	Y1	Z1	X2	Y2	Z2	X3	Y3	Z3	X4	Y4	Z4	X5	Y5	Z5	X6	Y6	Z6	X7	Y7	Z7	X8	Y8	Z8	X9	Y9	Z9	X10	Y10	Z10	X11	Y11	Z11	X12	Y12	Z12	X13	Y13	Z13	X14	Y14	Z14	X15	Y15	Z15	X16	Y16	Z16	X17	Y17	Z17	X18	Y18	Z18	X19	Y19	Z19	X20	Y20	Z20	X21	Y21	Z21	X22	Y22	Z22	X23	Y23	Z23	X24	Y24	Z24	X25	Y25	Z25	X26	Y26	Z26	X27	Y27	Z27	X28	Y28	Z28	X29	Y29	Z29	X30	Y30	Z30	X31	Y31	Z31	X32	Y32	Z32	X33	Y33	Z33	X34	Y34	Z34	X35	Y35	Z35	X36	Y36	Z36	X37	Y37	Z37	X38	Y38	Z38	X39	Y39	Z39	X40	Y40	Z40	X41	Y41	Z41	X42	Y42	Z42	

57	1.17	1259.356525	976.980378	-429.700908	1229.042051	970.170623	-175.807367	1082.83333	1032.568362	-365.824975	1219.098272	800.318372	-135.193552	1299.300715	726.062641	-144.675652	1295.819091	588.016073	-163.85379	1195.351738	835.727841	-501.156629	1267.620345	710.14635	-480.031448	1204.058382	587.432799	-463.425977	1229.318252	403.582069	-240.607571	1118.302284	408.91901	-199.207903	1059.476244	360.104949	-259.276792	1182.54465	309.154087	-370.95481	1127.653684	266.38671	-414.404097	1099.084582	198.336921	-353.095759	913.407976	427.210214	-262.939719	1008.079854	210.895109	-260.702747	981.679256	220.454893	-185.461615	924.8959180000001	120.085646	-339.196951	1161.438914	68.736452	-302.840481	1134.801978	56.152572	-392.189038	1311.54883	1475.846163	-499.916841	1245.257563	1475.769381	-156.497623	1321.641979	1415.781087	-287.255804	1221.815989	1513.854405	-340.571362	1141.553819	1369.004439	-91.883302	1074.288378	1378.50229	-111.96594	1064.881597	1307.086967	-88.490956	1009.620581	1246.614574	-76.629018	989.878751	1252.44009	-167.473184	1258.144922	1354.436674	-573.700385	1172.180917	1308.789312	-564.07015	1207.69112	1235.492976	-589.9471579999999	1190.566227	1170.315992	-605.159645	1086.033277	1198.598736	-79.679497	1222.742281	1110.177067	-136.928968	1173.335793	1061.886526	-116.082053	1275.623217	1156.611517	-583.675674	1420.551373	1176.904014	-482.766817	1423.747944	1108.936769	-507.481736	1152.506329	1157.238625	-519.543716	1069.19557	1023.888697	-274.546646	
58	1.18	1258.321175	982.835112	-430.405893	1228.791167	976.770388	-176.400826	1083.573224	1038.000741	-367.059612	1221.201755	810.309696	-134.077725	1303.65266	739.042858	-144.476618	1305.032528	601.085968	-163.906123	1193.518264	838.4368930000001	-500.321173	1258.683537	709.165746	-477.30769	1187.407265	590.0435189999999	-461.895275	1249.712657	408.427356	-240.818633	1137.206525	406.867495	-200.477573	1083.733495	352.371657	-259.656391	1156.708784	311.201429	-370.080756	1101.519136	269.307746	-413.967998	1072.124032	201.219867	-353.051259	931.770125	407.025989	-267.409824	1045.951437	200.43434	-258.783925	1017.81863	209.246383	-184.294913	897.389106	126.177108	-340.59095	1131.289786	68.632363	-302.109656	1104.958419	56.324998	-391.989101	1312.352329	1483.64082	-497.90068	1240.575328	1482.759405	-155.910581	1319.628097	1422.998002	-285.372855	1220.368842	1520.182338	-340.120969	1133.843684	1378.980961	-93.05035100000001	1067.672887	1388.718988	-116.841269	1056.088924	1318.518818	-91.29231299999999	999.932543	1258.761776	-80.419693	982.959266	1263.552157	-171.881282	1260.795998	1361.854477	-571.95062	1175.496912	1314.686326	-564.08934	1213.474361	1241.658354	-587.9604399999999	1197.77355	1175.784114	-602.0389730000001	1076.850653	1211.804876	-81.00242799999999	1216.532149	1125.989071	-135.48804	1167.738798	1076.964416	-114.941194	1282.756908	1165.776191	-578.342167	1424.347983	1194.478981	-475.108258	1430.63391	1125.941557	-497.082153	1158.328927	1163.572935	-517.081918	1069.27994	1030.204761	-275.214011	
59	1.19	1257.743239	989.944134	-431.223432	1229.170474	984.4112229999999	-177.005	1084.642174	1043.801931	-368.38294	1223.349464	821.005809	-133.132748	1307.459238	752.294306	-144.690397	1313.206462	614.519279	-163.900041	1190.862021	841.540924	-499.512246	1249.421254	709.1711330000001	-474.489682	1171.156261	593.839815	-460.554225	1269.167636	413.607638	-240.870459	1155.851213	404.020674	-201.760409	1107.924772	343.951084	-260.069799	1131.042801	314.856987	-369.537531	1075.671476	273.662773	-413.679442	1045.738944	205.538564	-353.129407	951.7332730000001	385.321196	-271.723638	1084.738492	190.560877	-257.762433	1054.789441	197.958908	-183.924983	870.9583239999999	134.100527	-342.013284	1101.172874	68.584368	-301.452579	1075.257938	56.542172	-391.851854	1312.823408	1492.502854	-495.852213	1236.725456	1490.399028	-155.179239	1317.844485	1431.15819	-283.392338	1218.930329	1527.389258	-339.355358	1127.591584	1389.195297	-94.08318199999999	1062.558252	1399.441044	-121.266907	1048.608027	1330.754068	-94.02323	991.501359	1271.656487	-84.099124	977.162178	1275.370868	-175.966426	1263.363093	1370.302316	-570.2467789999999	1179.030169	1321.398698	-565.279685	1219.421048	1248.7218	-586.439733	1204.941587	1182.272516	-599.552253	1068.755302	1225.546165	-82.41423399999999	1211.298322	1142.386257	-134.306823	1163.052208	1092.679409	-114.307829	1289.387611	1175.861844	-573.413428	1426.938644	1212.953525	-467.669174	1436.219682	1144.048202	-486.683026	1164.22181	1170.845774	-515.964566	1070.114537	1037.192731	-276.022974	
60	1.2	1257.893005	997.9223050000001	-432.239556	1230.16384	993.011473	-177.925793	1086.067792	1049.954438	-369.768718	1225.53207	832.045418	-132.453572	1310.803354	765.492711	-145.263094	1320.299309	627.98963	-163.820952	1187.533861	845.18196	-498.676221	1240.085735	710.705223	-471.676774	1155.686359	598.8930350000001	-459.514077	1287.613908	418.958153	-241.018602	1174.503303	400.160558	-203.011845	1132.391266	335.111615	-261.013731	1105.99864	320.114348	-369.553494	1050.377457	279.506182	-413.68444	1020.09418	211.315902	-353.389615	973.488775	362.536845	-275.569409	1124.250292	181.441193	-257.944271	1092.691388	186.67618	-184.522479	845.862888	143.771582	-343.34606	1071.242894	68.60204400000001	-301.115912	1045.761546	56.802046	-391.739686	1313.00493	1502.003158	-493.575018	1233.551271	1498.486305	-154.330853	1316.298552	1439.879968	-281.355655	1217.542017	1535.19236	-338.292319	1122.649449	1399.463539	-94.87986600000001	1058.854883	1410.560159	-124.982261	1042.546193	1343.431833	-96.506528	984.406792	1284.979904	-87.586519	972.491025	1287.752177	-179.794995	1266.134681	1379.520089	-568.613934	1182.964599	1329.034623	-567.214824	1225.393661	1256.649384	-585.3733999999999	1211.945893	1189.691638	-597.762166	1061.863169	1239.716712	-84.015764	1207.006311	1159.073852	-133.30914	1159.288796	1108.632141	-114.208967	1295.514063	1186.760881	-569.016991	1428.329756	1231.897861	-460.603887	1440.542939	1162.847566	-476.693592	1169.416891	1178.963633	-515.707585	1071.442024	1044.720483	-276.848334	
61	1.21	1258.627001	1006.389381	-433.603217	1231.629245	1002.219606	-179.288063	1087.916791	1056.47893	-371.26563	1227.740382	843.095607	-132.056127	1313.809112	778.344688	-146.001055	1326.155567	641.017737	-163.80537	1184.1117	849.4189239999999	-497.81508	1231.071331	713.6017399999999	-468.968466	1140.906722	605.18569	-458.761204	1305.068005	424.042141	-241.59886	1193.367907	395.264527	-204.185642	1157.625938	326.212391	-262.709652	1081.930116	326.87891	-370.0389	1025.981612	286.76746	-414.073304	995.441996	218.422373	-353.927593	997.108758	339.135695	-278.607148	1164.343932	173.232967	-259.448547	1131.638086	175.501785	-186.164978	822.311057	154.93121	-344.628307	1041.715169	68.662385	-301.223635	1016.577067	57.080492	-391.692838	1312.946608	1511.779243	-491.078826	1230.919752	1506.745145	-153.41189	1314.949773	1448.813632	-279.393127	1216.18622	1543.290728	-336.987383	1118.743015	1409.703533	-95.398539	1056.259396	1421.898151	-127.844423	1037.817898	1356.093034	-98.58571999999999	978.56364	1298.318274	-90.769178	968.928265	1300.477654	-183.441475	1269.26885	1389.244441	-567.093484	1187.337059	1337.600643	-569.260593	1231.238777	1265.426366	-584.742511	1218.705653	1197.982274	-596.687203	1056.146471	1254.000833	-85.69994699999999	1203.612757	1175.768327	-132.41156	1156.456032	1124.45134	-114.581574	1301.168111	1198.372709	-565.254799	1428.62257	1250.860767	-453.956892	1443.720714	1181.897577	-467.445989	1173.267276	1187.835339	-515.934391	1072.991389	1052.64836	-277.718735	
